<svg width="419" height="176" viewBox="0 0 419 176" fill="none" xmlns="http://www.w3.org/2000/svg">
<rect opacity="0.2" y="14" width="419" height="162" fill="black"/>
<rect x="3.5" y="3.5" width="412" height="155" fill="white"/>
<rect x="3.5" y="3.5" width="412" height="155" stroke="black" stroke-width="7"/>
<path d="M233.679 124.456L207.721 86.7414L204.024 81.3726L173.903 37.6089H186.86L211.219 73.0017L214.916 78.3704L246.636 124.456H233.679ZM251.992 120.772L219.298 73.2736L215.602 67.9016L192.214 33.924L190.276 31.1082H161.537L168.546 41.2929L199.642 86.4752L203.339 91.8415L228.324 128.144L230.263 130.957H259.002L251.992 120.772Z" fill="black"/>
<path d="M204.025 81.3726L207.722 86.7414L203.34 91.8415L169.717 130.957H161.426L199.643 86.4752L204.025 81.3726Z" fill="black"/>
<path d="M255.543 31.1083L219.299 73.2737L214.917 78.3705L211.221 73.0018L215.603 67.9016L240.154 39.3257L247.252 31.1083H255.543Z" fill="black"/>
</svg>
