<svg width="419" height="176" viewBox="0 0 419 176" fill="none" xmlns="http://www.w3.org/2000/svg">
<rect opacity="0.2" y="14" width="419" height="162" fill="black"/>
<rect x="3.5" y="3.5" width="412" height="155" fill="white"/>
<rect x="3.5" y="3.5" width="412" height="155" stroke="black" stroke-width="7"/>
<path d="M134.799 40.7933C134.434 39.7312 133.998 39.4518 133.316 39.1863C131.826 38.6413 129.301 39.4657 129.301 39.4657C129.301 39.4657 39.9307 71.1586 34.825 74.6661C33.7257 75.4207 33.3574 75.8678 33.1746 76.3849C32.2921 78.8722 35.0418 79.9762 35.0418 79.9762L58.0769 87.3824C58.0769 87.3824 58.9353 87.5081 59.2413 87.3125C64.4816 84.0426 111.964 54.4737 114.703 53.4816C115.135 53.3558 115.455 53.4956 115.37 53.789C114.273 57.5899 73.0326 93.7405 73.0326 93.7405C73.0326 93.7405 72.8754 93.9362 72.7762 94.1597L72.7224 94.1318L70.5733 116.672C70.5733 116.672 69.6723 123.575 76.672 116.672C81.6106 111.795 86.389 107.714 88.7803 105.744C96.7009 111.138 105.225 117.105 108.904 120.221C110.751 121.786 112.297 122.038 113.569 121.996C117.061 121.87 118.036 118.083 118.036 118.083C118.036 118.083 134.322 53.4257 134.866 44.7619C134.92 43.9094 134.993 43.3784 134.999 42.7915C135.009 41.981 134.933 41.1705 134.799 40.7933Z" fill="black"/>
<path d="M183.818 68.875V76.0938H174.282V95.125H165.536V76.0938H156V68.875H183.818Z" fill="black"/>
<path d="M185.871 95.125V68.875H209.774V75.8125H194.617V79.1563H209.205V84.8438H194.617V88.1875H209.774V95.125H185.871Z" fill="black"/>
<path d="M211.995 95.125V68.875H220.741V87.9063H234.887V95.125H211.995Z" fill="black"/>
<path d="M237.083 95.125V68.875H260.985V75.8125H245.829V79.1563H260.417V84.8438H245.829V88.1875H260.985V95.125H237.083Z" fill="black"/>
<path d="M276.514 96C272.494 96 269.136 94.7083 266.442 92.125C263.747 89.5208 262.4 86.1458 262.4 82C262.4 77.7917 263.779 74.4062 266.536 71.8438C269.294 69.2813 272.967 68 277.556 68C279.177 68 280.735 68.1979 282.229 68.5937C283.724 68.9896 285.103 69.5833 286.366 70.375C287.65 71.1458 288.723 72.1979 289.586 73.5313C290.471 74.8438 291.039 76.3542 291.292 78.0625H282.608C282.292 77.3542 281.693 76.75 280.808 76.25C279.924 75.7292 278.903 75.4687 277.746 75.4687C275.746 75.4687 274.135 76.0625 272.915 77.25C271.694 78.4375 271.083 80.0208 271.083 82C271.083 83.9583 271.694 85.5521 272.915 86.7813C274.135 87.9896 275.693 88.5938 277.588 88.5938C278.809 88.5938 279.924 88.3333 280.935 87.8125C281.966 87.2917 282.64 86.3958 282.956 85.125H277.146V80.625H291.418V95.125H286.745L286.618 90.75C285.734 92.2708 284.461 93.5313 282.798 94.5313C281.135 95.5104 279.04 96 276.514 96Z" fill="black"/>
<path d="M321.336 95.125H312.748L309.148 88.3438H302.517V95.125H293.771V68.875H308.959C316.621 68.875 320.452 72.2188 320.452 78.9063C320.452 82.1771 319.168 84.7083 316.6 86.5L321.336 95.125ZM302.517 76.0625V81.875H308.359C309.453 81.875 310.285 81.625 310.853 81.125C311.421 80.625 311.706 79.9063 311.706 78.9688C311.706 78.0313 311.421 77.3125 310.853 76.8125C310.285 76.3125 309.453 76.0625 308.359 76.0625H302.517Z" fill="black"/>
<path d="M344.383 95.125L343.215 91.6563H331.847L330.679 95.125H321.648L331.405 68.875H343.657L353.413 95.125H344.383ZM333.995 85.25H341.067L338.289 77H336.773L333.995 85.25Z" fill="black"/>
<path d="M354.677 95.125V68.875H365.697L370.023 83.8438H370.654L374.98 68.875H386V95.125H377.664V83.5H376.969L373.591 95.125H367.086L363.708 83.5H363.013V95.125H354.677Z" fill="black"/>
</svg>
